<?xml version="1.0" encoding="utf-8"?>
<!-- Generator: Adobe Illustrator 27.5.0, SVG Export Plug-In . SVG Version: 6.00 Build 0)  -->
<svg version="1.1" xmlns="http://www.w3.org/2000/svg" xmlns:xlink="http://www.w3.org/1999/xlink" x="0px" y="0px"
	 viewBox="0 0 500 500" style="enable-background:new 0 0 500 500;" xml:space="preserve">
<g id="BACKGROUND">
	<rect y="0.5" style="fill:#C3E3C6;" width="500" height="500"/>
</g>
<g id="OBJECTS">
	<ellipse style="opacity:0.3;fill:#231F20;" cx="250" cy="367.5" rx="152.5" ry="6.833"/>
	<g>
		<g>
			<defs>
				<path id="SVGID_1_" d="M301.837,262.222c-11.085,17.98-11.471,38.242-13.361,58.684c-1.265,13.677-16.585,10.976-24.866,4.954
					c-8.558-6.223-11.525-17.369-10.825-27.552c1.244-18.08,9.5-35.077,19.268-50.034c9.428-14.435,23.246-27.04,29.125-43.53
					c0.77-2.159,1.383-4.374,1.787-6.632c1.748-9.771-0.359-22.115-7.806-29.159c-8.004-7.572-25.917-9.426-34.306-1.518
					c-6.409,6.042-5.265,19.833-15.564,21.648c-9.908,1.747-16.319-8.576-17.435-17.053c-2.21-16.778,8.98-33.869,24.094-40.613
					c12.688-5.661,31.088-6.264,44.42-3.034c21.038,5.098,35.959,23.985,41.509,44.188c5.665,20.623-1.923,40.429-13.067,57.698
					C317.799,241.133,308.68,251.124,301.837,262.222z"/>
			</defs>
			<use xlink:href="#SVGID_1_"  style="overflow:visible;fill:#43722E;"/>
			<clipPath id="SVGID_00000165226894012633516890000006230601799862476987_">
				<use xlink:href="#SVGID_1_"  style="overflow:visible;"/>
			</clipPath>
			<g style="clip-path:url(#SVGID_00000165226894012633516890000006230601799862476987_);">
				<path style="fill:none;stroke:#9CC342;stroke-width:11;stroke-miterlimit:10;" d="M239.952,142.79
					c5.211,2.495,11.303,2.433,16.988,1.408c3.487-0.629,6.543-1.643,10.144-2.025c7.489-0.793,22.271-0.813,23.148-11.139
					c0.138-1.62-0.156-3.253-0.637-4.806c-0.43-1.388-1.039-2.77-2.094-3.769c-0.97-0.919-2.242-1.445-3.502-1.893
					c-3.298-1.172-5.619-0.939-9.005-1.051c-6.137-0.203-12.312,0.026-18.356,1.169c-5.132,0.97-10.168,2.619-14.771,5.105
					c-2.224,1.201-5.23,2.707-6.881,4.671C230.634,135.637,235.089,140.46,239.952,142.79z"/>
				<path style="fill:none;stroke:#9CC342;stroke-width:11;stroke-miterlimit:10;" d="M307.806,180.81
					c-0.969,3.675-3.66,6.561-9.361,6.436c-3.761-0.082-7.328-3.214-9.567-5.528c-4.89-5.056-8.088-11.302-9.196-17.811
					c-0.822-4.826,2.621-10.6,9.208-9.873c2.649,0.293,5.078,1.429,7.243,2.777c6.25,3.893,10.45,9.848,11.726,16.393
					C308.337,175.663,308.44,178.406,307.806,180.81z"/>
				<path style="fill:none;stroke:#9CC342;stroke-width:11;stroke-miterlimit:10;" d="M346.351,201.084
					c2.955-8.63,3.152-18.139,0.77-26.93c-1.696-6.258-7.242-19.313-16.104-13.71c-4.195,2.652-5.374,8.058-5.862,12.652
					c-0.797,7.498-0.545,15.107,0.745,22.536c0.634,3.65,1.578,7.385,3.877,10.29c2.299,2.905,6.272,4.769,9.791,3.609
					C343.125,208.358,345.137,204.63,346.351,201.084z"/>
				<path style="fill:none;stroke:#9CC342;stroke-width:11;stroke-miterlimit:10;" d="M297.933,235.959
					c-3.043,3.364-6.613,6.365-10.025,9.116c-1.374,1.107-2.776,2.232-4.421,2.872c-3.476,1.354-7.781,0.126-10.021-2.856
					c-1.525-2.031-2.081-4.645-2.137-7.183c-0.282-12.772,11.057-22.373,21.938-26.868c3.629-1.499,8.462-2.22,10.921,0.841
					c1.236,1.538,1.478,3.631,1.556,5.603C306.033,224.773,302.604,230.795,297.933,235.959z"/>
				<path style="fill:none;stroke:#9CC342;stroke-width:11;stroke-miterlimit:10;" d="M298.485,262.344
					c6.439,1.461,5.501,10.271,4.19,14.951c-2.023,7.223-2.237,14.743-4.202,22.048c-1.425,5.295-4.686,9.288-10.531,9.325
					c-1.353,0.009-2.732-0.209-3.929-0.84c-1.341-0.707-2.369-1.883-3.299-3.081c-9.502-12.236-4.705-32.083,8.006-40.306
					C291.591,262.583,295.15,261.588,298.485,262.344z"/>
			</g>
		</g>
		<g style="opacity:0.3;">
			<path style="fill:#231F20;" d="M295.157,168.953c5.197,4.916,7.786,12.414,8.286,19.817c0.62-8.96-1.815-19.084-8.286-25.206
				c-8.004-7.571-25.917-9.426-34.306-1.518c-6.409,6.042-5.265,19.833-15.564,21.648c-9.908,1.747-16.319-8.576-17.435-17.053
				c-0.068-0.516-0.123-1.032-0.165-1.548c-0.181,2.3-0.14,4.621,0.165,6.937c1.117,8.477,7.527,18.8,17.435,17.053
				c10.299-1.816,9.154-15.607,15.564-21.648C269.24,159.527,287.153,161.382,295.157,168.953z"/>
			<path style="fill:#231F20;" d="M324.807,224.88c-7.011,10.864-16.13,20.854-22.972,31.953
				c-11.085,17.98-11.471,38.242-13.361,58.685c-1.265,13.677-16.585,10.976-24.866,4.954c-7.023-5.107-10.276-13.531-10.831-22.016
				c-0.662,10.144,2.315,21.212,10.831,27.406c8.281,6.022,23.601,8.723,24.866-4.954c1.89-20.442,2.276-40.704,13.361-58.685
				c6.842-11.098,15.962-21.089,22.972-31.952c9.035-14,15.731-29.669,14.924-46.087C339.036,198.638,332.848,212.42,324.807,224.88
				z"/>
		</g>
		<g>
			<defs>
				<path id="SVGID_00000138558513276273974180000003749522107925239228_" d="M174.581,365.166
					c8.254,0.06,54.691,3.659,53.085-10.141c-0.428-3.673-3.396-6.536-6.531-8.497c-7.34-4.594-16.258-5.952-24.915-6.134
					c-15.57-0.329-31.034,1.371-46.587,0.455c-12.049-0.71-25.264-3.544-32.399-13.28c-5.117-6.982-6.03-16.166-5.795-24.818
					c0.205-7.57,1.207-15.31,4.726-22.015c3.519-6.705,9.941-12.249,17.469-13.07c-15.604,2.081-29.12,14.026-34.379,28.864
					c-5.258,14.838-2.625,31.935,5.695,45.299c2.441,3.92,5.367,7.578,8.955,10.485c6.082,4.928,13.75,7.465,21.393,9.16
					C148.163,364.327,161.405,365.071,174.581,365.166z"/>
			</defs>
			<use xlink:href="#SVGID_00000138558513276273974180000003749522107925239228_"  style="overflow:visible;fill:#2B4A1E;"/>
			<clipPath id="SVGID_00000175302960984240787010000009598346513834001542_">
				<use xlink:href="#SVGID_00000138558513276273974180000003749522107925239228_"  style="overflow:visible;"/>
			</clipPath>
			<g style="clip-path:url(#SVGID_00000175302960984240787010000009598346513834001542_);">
				<path style="fill:none;stroke:#7C9B34;stroke-width:11;stroke-miterlimit:10;" d="M164.479,375.154
					c-5.215-1.694-8.956-6.422-7.858-12.148c0.931-4.854,5.961-7.61,10.451-8.382c6.766-1.163,14.082,1.001,20.197,3.791
					c4.331,1.976,8.661,5.174,9.585,9.844c0.166,0.841,0.211,1.731-0.073,2.54c-0.488,1.391-1.835,2.281-3.157,2.933
					c-6.16,3.037-13.332,3.057-20.192,2.718C170.411,376.302,167.356,376.089,164.479,375.154z"/>
				<path style="fill:none;stroke:#7C9B34;stroke-width:11;stroke-miterlimit:10;" d="M138.95,347.745
					c3.692,1.369,7.811,2.236,11.537,0.965s6.718-5.308,5.642-9.096c-0.64-2.252-2.507-3.939-4.455-5.237
					c-5.277-3.516-16.79-7.455-22.603-2.776C121.784,337.466,134.144,345.963,138.95,347.745z"/>
				<path style="fill:none;stroke:#7C9B34;stroke-width:11;stroke-miterlimit:10;" d="M107.302,329.717
					c4.683,2.707,6.47,8.69,6.308,14.096c-0.074,2.488-0.543,5.123-2.222,6.96c-1.965,2.151-5.234,2.719-8.078,2.084
					c-3.388-0.757-6.349-3.034-8.212-5.964c-2.702-4.248-3.994-11.852-1.174-16.401C96.355,326.573,103.887,327.743,107.302,329.717
					z"/>
				<path style="fill:none;stroke:#7C9B34;stroke-width:11;stroke-miterlimit:10;" d="M108.297,294.523
					c-1.806,1.675-3.102,3.85-3.955,6.161c-1.226,3.323-1.544,7.093-0.245,10.389c1.298,3.296,4.405,5.976,7.942,6.176
					c3.736,0.212,7.268-2.377,8.883-5.753c1.615-3.376,1.548-7.36,0.593-10.978c-0.751-2.846-2.404-6.955-5.157-8.48
					C113.667,290.548,110.381,292.589,108.297,294.523z"/>
			</g>
		</g>
		<path style="opacity:0.3;fill:#231F20;" d="M221.135,346.529c-7.34-4.594-16.258-5.952-24.915-6.134
			c-12.475-0.264-24.882,0.773-37.321,0.725c0.732,1.192,1.515,2.316,2.34,3.344c7.987,9.957,20.713,15.88,32.889,18.802
			c3.681,0.884,7.407,1.512,11.157,1.995c12.253-0.851,23.175-3.421,22.382-10.235C227.237,351.353,224.269,348.49,221.135,346.529z
			"/>
		<g>
			<defs>
				<path id="SVGID_00000149371879940331554070000004195736192539718571_" d="M370.397,328.775
					c-7.348,8.215-17.172,7.323-26.5,10.736c-6.242,2.283-13.014,2.617-19.66,2.622c-32.11,0.025-64.205-7.161-93.24-20.873
					c-4.119-1.945-8.304-4.12-11.176-7.657c-2.871-3.537-4.102-8.792-1.776-12.709c3.279-5.524,11.109-5.596,17.504-4.987
					c21.249,2.022,42.538,4.392,63.915,4.15c10.925-0.123,21.588-1.286,32.395-2.753c9.088-1.234,19.727-3.289,28.829-1.4
					C377.205,299.329,381.255,316.636,370.397,328.775z"/>
			</defs>
			<use xlink:href="#SVGID_00000149371879940331554070000004195736192539718571_"  style="overflow:visible;fill:#2B4A1E;"/>
			<clipPath id="SVGID_00000175299432705509435490000009705561441064063919_">
				<use xlink:href="#SVGID_00000149371879940331554070000004195736192539718571_"  style="overflow:visible;"/>
			</clipPath>
			<g style="clip-path:url(#SVGID_00000175299432705509435490000009705561441064063919_);">
				<path style="fill:none;stroke:#7C9B34;stroke-width:11;stroke-miterlimit:10;" d="M286.788,296.358
					c-0.263-6.597,8.488-7.982,13.348-7.932c7.501,0.076,14.818-1.672,22.382-1.673c5.483-0.001,10.186,2.111,11.742,7.746
					c0.36,1.304,0.508,2.693,0.21,4.012c-0.334,1.479-1.203,2.777-2.117,3.987c-9.345,12.356-29.757,12.882-41.002,2.746
					C288.811,302.954,286.924,299.776,286.788,296.358z"/>
				<path style="fill:none;stroke:#7C9B34;stroke-width:11;stroke-miterlimit:10;" d="M384.64,334.829
					c-0.383,6.591-9.227,7.114-14.059,6.59c-7.457-0.809-14.91,0.216-22.438-0.522c-5.457-0.535-9.931-3.096-10.929-8.856
					c-0.231-1.333-0.243-2.729,0.183-4.013c0.478-1.439,1.468-2.646,2.497-3.761c10.508-11.383,30.874-9.913,41.074,1.274
					C383.272,328.068,384.839,331.415,384.64,334.829z"/>
			</g>
		</g>
		<g>
			<defs>
				<path id="SVGID_00000119103272899298680870000013074592916416872093_" d="M324.449,368.569
					c5.905-0.942,30.314-7.653,25.332-18.024c-1.704-3.547-5.791-5.166-9.55-6.327c-19.265-5.953-39.56-8.182-58.662-14.639
					c-15.171-5.128-29.329-12.836-44.193-18.796c-14.863-5.96-30.972-10.201-46.818-7.889c-4.761,0.695-9.635,2.083-13.166,5.352
					c-10.267,9.503-5.974,26.748,1.623,36.219c7.987,9.957,20.713,15.88,32.889,18.802c11,2.641,22.385,3.135,33.687,3.619
					c17.88,0.765,35.76,1.53,53.64,2.295C307.647,369.539,316.131,369.896,324.449,368.569z"/>
			</defs>
			<use xlink:href="#SVGID_00000119103272899298680870000013074592916416872093_"  style="overflow:visible;fill:#43722E;"/>
			<clipPath id="SVGID_00000174589620148722989540000015453941790427809672_">
				<use xlink:href="#SVGID_00000119103272899298680870000013074592916416872093_"  style="overflow:visible;"/>
			</clipPath>
			<g style="clip-path:url(#SVGID_00000174589620148722989540000015453941790427809672_);">
				<path style="fill:none;stroke:#9CC342;stroke-width:11;stroke-miterlimit:10;" d="M186.917,361.12
					c-0.546-0.438-1.103-0.86-1.662-1.275c-3.422-2.542-6.899-4.853-8.087-9.406c-1.1-4.216,0.929-9.394,5.089-10.69
					c2.341-0.729,4.871-0.177,7.235,0.475c3.046,0.84,6.055,1.845,8.909,3.202c7.238,3.442,19.69,11.939,14.976,21.533
					c-2.212,4.501-7.29,4.191-11.598,4.099C196.171,368.941,191.12,364.495,186.917,361.12z"/>
				<path style="fill:none;stroke:#9CC342;stroke-width:11;stroke-miterlimit:10;" d="M254.171,357.892
					c-2.306-2.362-3.758-5.288-3.34-8.828c0.705-5.977,8.92-7.511,13.954-7.614c4.13-0.084,8.193,0.958,12.178,2.045
					c7.812,2.13,15.986,4.715,21.406,10.73c1.156,1.283,2.192,2.774,2.435,4.484c0.37,2.611-1.254,5.201-3.459,6.647
					c-2.205,1.446-4.892,1.943-7.517,2.195c-7.97,0.767-16.011-0.46-23.608-2.887C262.411,363.447,257.436,361.235,254.171,357.892z
					"/>
			</g>
		</g>
		<path style="fill:#D73D47;" d="M243.125,239.5l-1.25,28.165l2.5-4.54l2.219,4.03c0,0-0.844-21.655-0.844-27.655
			S243.125,239.5,243.125,239.5z"/>
		<path style="opacity:0.3;fill:#231F20;" d="M376.432,313.149c-1.567,2.343-3.884,4.2-6.471,5.361
			c-8.34,3.744-19.089,1.232-27.773,0.152c-9.644-1.199-19.248-2.752-28.726-4.912c-19.362-4.413-38.481-9.805-57.717-14.722
			c-2.364-0.604-4.762-1.239-7.186-1.868c-4.337-0.416-8.672-0.842-13.006-1.255c-6.395-0.609-14.224-0.537-17.504,4.987
			c-2.326,3.917-1.095,9.172,1.776,12.709c2.871,3.537,7.056,5.712,11.176,7.657c29.035,13.713,61.13,20.898,93.24,20.873
			c6.646-0.005,13.418-0.338,19.66-2.622c9.328-3.413,19.152-2.521,26.5-10.736C374.69,323.98,376.644,318.382,376.432,313.149z"/>
		<g>
			<defs>
				<path id="SVGID_00000181046302216951077360000010815135117236504753_" d="M277.017,353.267
					c-20.487-7.59-40.933-15.904-61.801-22.165c-8.218-2.431-16.219-4.637-24.757-2.523c-3.232,0.8-6.351,2.163-9.669,2.437
					c-3.319,0.275-7.071-0.864-8.616-3.814c-0.679-1.297-0.857-2.795-0.917-4.257c-0.378-9.24,3.578-17.649,10.34-23.775
					c4.914-4.452,10.956-7.369,17.449-8.701c16.375-3.358,33.244,3.096,48.679,8.086c18.892,6.107,37.638,12.68,56.687,18.291
					c19.857,5.849,39.439,8.747,59.86,11.772c3.467,0.514,7.017,1.054,10.095,2.731c7.189,3.917,9.961,13.633,7.318,21.382
					c-2.643,7.749-9.699,13.419-17.452,16.051c-7.753,2.632-16.162,2.588-24.307,1.756c-19.304-1.973-37.77-8.173-55.925-14.717
					C281.671,354.982,279.344,354.129,277.017,353.267z"/>
			</defs>
			<use xlink:href="#SVGID_00000181046302216951077360000010815135117236504753_"  style="overflow:visible;fill:#43722E;"/>
			<clipPath id="SVGID_00000088828339112608086540000013539987352079959477_">
				<use xlink:href="#SVGID_00000181046302216951077360000010815135117236504753_"  style="overflow:visible;"/>
			</clipPath>
			<g style="clip-path:url(#SVGID_00000088828339112608086540000013539987352079959477_);">
				<path style="fill:none;stroke:#9CC342;stroke-width:11;stroke-miterlimit:10;" d="M196.366,277.173
					c-11.54,3.367-20.693,13.886-24.687,25.01c-1.145,3.19-1.776,7.245,0.709,9.549c1.394,1.293,3.426,1.636,5.327,1.599
					c8.34-0.162,15.282-6.259,23.219-8.827c6.328-2.047,13.558-2.075,20.145-1.997c7.327,0.087,18.074-4.775,13.577-13.955
					c-1.414-2.886-4.019-5.018-6.779-6.664c-7.006-4.179-15.32-5.733-23.476-5.827C201.624,276.028,198.936,276.423,196.366,277.173
					z"/>
				<path style="fill:none;stroke:#9CC342;stroke-width:11;stroke-miterlimit:10;" d="M297.804,345.16
					c-5.297,0.855-8.378,4.993-8.37,10.242c0.01,6.828,3.819,10.685,9.447,14.12c5.399,3.295,12.086,4.095,18.184,5.392
					c7.167,1.525,18.66-1.131,16.054-11.016c-0.82-3.108-2.955-5.71-5.338-7.866c-6.048-5.474-13.895-8.631-21.874-10.326
					C303.243,345.142,300.492,344.727,297.804,345.16z"/>
				<path style="fill:none;stroke:#9CC342;stroke-width:11;stroke-miterlimit:10;" d="M258.655,330.472
					c-0.741-0.715-1.618-1.355-2.6-1.907c-6.301-3.54-13.598-5.231-20.812-4.965c-5.659,0.208-15.379,1.462-17.837,7.64
					c-1.74,4.374-0.564,9.747,3.06,12.812c3.072,2.598,7.274,3.345,11.279,3.727c6.592,0.63,13.954,1.04,20.326-1.112
					c3.372-1.139,6.539-3.303,8.148-6.478C262.163,336.355,261.227,332.956,258.655,330.472z"/>
				<path style="fill:none;stroke:#9CC342;stroke-width:11;stroke-miterlimit:10;" d="M276.171,321.466
					c9.695,4.94,24.772,5.158,31.31,0.626c7.566-5.245,3.153-13.994-3.275-18.015c-8.203-5.133-19.555-5.628-28.855-3.876
					c-3.218,0.606-6.316,2-7.354,5.366C265.735,312.909,269.785,318.212,276.171,321.466z"/>
				<path style="fill:none;stroke:#9CC342;stroke-width:11;stroke-miterlimit:10;" d="M353.345,335.071
					c8.3,2.794,17.305,4.421,24.199,9.821c2.074,1.625,4.029,3.625,6.596,4.223c3.257,0.758,6.921-1.31,7.956-4.489
					c1.36-4.18-1.556-8.532-4.813-11.485c-5.382-4.879-12.055-8.127-18.897-10.568c-7.027-2.506-13.252-4.282-20.683-2.378
					c-1.304,0.334-2.627,0.773-3.638,1.661c-2.521,2.214-1.173,6.236,0.699,8.372C346.89,332.654,350.356,334.065,353.345,335.071z"
					/>
			</g>
		</g>
		<g>
			<defs>
				<path id="SVGID_00000096759530280627705070000014375903481577244319_" d="M259.026,233.962
					c11.78-14.886,21.022-41.766,11.58-60.466c-10.958-21.702-44.125-17.612-53.521,3.638c-4.193,9.482-2.674,20.18,0.449,29.745
					c4.071,12.47,10.527,32.251,24.615,34.4C248.622,242.266,254.847,239.243,259.026,233.962z"/>
			</defs>
			<use xlink:href="#SVGID_00000096759530280627705070000014375903481577244319_"  style="overflow:visible;fill:#43722E;"/>
			<clipPath id="SVGID_00000120542578371539692630000004399955900714247560_">
				<use xlink:href="#SVGID_00000096759530280627705070000014375903481577244319_"  style="overflow:visible;"/>
			</clipPath>
			<path style="clip-path:url(#SVGID_00000120542578371539692630000004399955900714247560_);fill:#9CC342;" d="M284.525,163.346
				c-1.2-3.308-3.658-6.192-6.873-7.529c-6.73-2.8-15.47-2.304-22.603-2.303c-13.565,0.002-27.633,0.425-39.817,6.389
				c-7.732,3.784-7.95,15.844-7.113,23.15c0.489,4.266,3.814,6.114,7.448,7.744c6.33,2.838,13.089,6.251,17.43,11.949
				c3.07,4.03,5.619,12.085,12.038,11.527c5.65-0.491,8.969-7.294,11.819-11.38c2.439-3.496,5.693-6.009,9.392-8.076
				c3.555-1.987,7.554-3.647,10.362-6.703c3.242-3.529,5.325-7.986,6.789-12.506C284.647,171.748,285.961,167.306,284.525,163.346z"
				/>
			<g style="clip-path:url(#SVGID_00000120542578371539692630000004399955900714247560_);">
				<path style="fill:#231F20;" d="M215.01,212.679c3.07,2.198,5.756,4.907,8.175,7.812c2.397,2.93,4.511,6.081,6.518,9.271
					l3.024,4.785c0.494,0.807,1.015,1.583,1.483,2.421c0.47,0.827,0.907,1.66,1.383,2.452c0.934,1.589,2.107,3.017,3.684,3.863
					c1.561,0.848,3.422,1.202,5.226,1.335c0.899,0.055,1.763-0.02,2.566-0.347c0.808-0.317,1.576-0.829,2.307-1.376
					c1.459-1.107,2.733-2.467,3.902-3.912c1.164-1.447,2.253-2.992,3.297-4.538c1.026-1.559,1.971-3.181,2.928-4.804
					c1.887-3.266,3.942-6.47,6.343-9.402c2.428-2.898,5.279-5.517,8.652-7.235c-1.623,0.96-3.125,2.105-4.507,3.372
					c-1.37,1.282-2.616,2.689-3.763,4.171c-2.299,2.966-4.257,6.174-6.057,9.477c-0.911,1.649-1.831,3.305-2.873,4.897
					c-1.052,1.585-2.124,3.133-3.31,4.633c-1.187,1.49-2.494,2.915-4.032,4.103c-0.771,0.585-1.578,1.142-2.525,1.525
					c-0.947,0.396-2.008,0.496-2.984,0.435c-1.935-0.162-3.869-0.534-5.631-1.498c-1.767-0.964-3.055-2.585-4.003-4.233
					c-1.765-3.364-3.848-6.456-5.759-9.717C225.211,223.727,220.912,217.431,215.01,212.679z"/>
			</g>
			
				<path style="clip-path:url(#SVGID_00000120542578371539692630000004399955900714247560_);fill:none;stroke:#43722E;stroke-width:6;stroke-miterlimit:10;" d="
				M237.225,172.295c1.048,0.735,1.912,1.759,2.44,3.056c0.545,1.337,0.706,2.797,0.793,4.238c0.232,3.835,0.874,9.07-1.497,12.433
				c-2.39,3.391-6.591,1.544-9.682,0.383c-3.011-1.131-7.188-2.935-7.192-6.743c-0.005-4.594,2.355-8.585,5.157-12.101
				C229.709,170.467,234.223,170.191,237.225,172.295z"/>
			
				<path style="clip-path:url(#SVGID_00000120542578371539692630000004399955900714247560_);fill:none;stroke:#43722E;stroke-width:6;stroke-miterlimit:10;" d="
				M251.75,172.295c-1.048,0.735-1.912,1.759-2.44,3.056c-0.545,1.337-0.706,2.797-0.793,4.238
				c-0.232,3.835-0.874,9.07,1.496,12.433c2.39,3.391,6.591,1.544,9.682,0.383c3.011-1.131,7.188-2.935,7.192-6.743
				c0.005-4.594-2.355-8.585-5.157-12.101C259.267,170.467,254.753,170.191,251.75,172.295z"/>
			
				<path style="clip-path:url(#SVGID_00000120542578371539692630000004399955900714247560_);fill:none;stroke:#43722E;stroke-width:6;stroke-miterlimit:10;" d="
				M234.031,155.167c0.043,7.703,9.379,11.648,15.812,9.643c4.072-1.27,7.439-4.608,8.742-8.67"/>
		</g>
		<path style="opacity:0.3;fill:#231F20;" d="M325.631,368.35c-14.233-2.88-28.065-7.607-41.722-12.529
			c-2.329-0.839-4.656-1.692-6.983-2.554c-20.452-7.577-40.864-15.875-61.695-22.131c15.051,7.438,29.814,15.667,44.653,23.484
			c2.196,1.157,4.393,2.304,6.593,3.438c7.171,3.697,14.406,7.337,21.775,10.652c3.66,0.156,7.32,0.313,10.979,0.47
			c8.416,0.36,16.899,0.717,25.218-0.611C324.784,368.515,325.186,368.441,325.631,368.35z"/>
		<g>
			<path style="fill:#003730;" d="M230.387,212.284c0.712,3.566-0.36,6.786-2.103,7.134c-2.339,0.467-5.283-1.951-5.995-5.517
				c-0.712-3.566,1.063-6.926,3.416-7.396C227.667,206.113,229.674,208.718,230.387,212.284z"/>
			<path style="fill:#231F20;" d="M229.28,212.719c0.22,2.045-0.644,3.815-1.93,3.954c-1.286,0.139-2.507-1.407-2.727-3.452
				c-0.22-2.045,0.644-3.815,1.93-3.954C227.839,209.128,229.06,210.674,229.28,212.719z"/>
			<path style="fill:#FFFFFF;" d="M225.872,210.761c0.143,0.717-0.322,1.415-1.04,1.558c-0.717,0.143-1.415-0.322-1.558-1.039
				c-0.143-0.717,0.322-1.415,1.04-1.558C225.031,209.579,225.729,210.044,225.872,210.761z"/>
		</g>
		<g>
			<path style="fill:#003730;" d="M258.631,212.284c-0.712,3.566,0.36,6.786,2.103,7.134c2.339,0.467,5.283-1.951,5.995-5.517
				c0.712-3.566-1.063-6.926-3.416-7.396C261.351,206.113,259.343,208.718,258.631,212.284z"/>
			<path style="fill:#231F20;" d="M259.738,212.719c-0.22,2.045,0.644,3.815,1.93,3.954c1.286,0.139,2.507-1.407,2.727-3.452
				c0.22-2.045-0.644-3.815-1.93-3.954C261.179,209.128,259.958,210.674,259.738,212.719z"/>
			<path style="fill:#FFFFFF;" d="M260.146,210.761c-0.143,0.717,0.322,1.415,1.039,1.558c0.717,0.143,1.415-0.322,1.558-1.039
				c0.143-0.717-0.322-1.415-1.039-1.558C260.987,209.579,260.289,210.044,260.146,210.761z"/>
		</g>
	</g>
</g>
<g id="DESIGNED_BY_FREEPIK">
	<g>
		<g id="XMLID_1_">
			<g id="XMLID_20_">
				<path id="XMLID_28_" style="fill:#222221;" d="M261.646,476.736c-0.49,0.502-0.91,1.054-1.255,1.646l-0.527-0.273
					c-0.076-0.337-0.396-0.569-0.746-0.528c-0.375,0.044-0.643,0.384-0.599,0.758c0.044,0.375,0.384,0.643,0.758,0.599
					c0.074-0.009,0.144-0.029,0.208-0.059l0.511,0.265c-0.284,0.627-0.49,1.289-0.611,1.975l0.845,0.149
					c0.26-1.479,0.962-2.839,2.029-3.932L261.646,476.736z"/>
				<path id="XMLID_27_" style="fill:#222221;" d="M267.861,474.129c-0.194,0-0.386,0.007-0.577,0.019l-0.083-0.709
					c0.212-0.169,0.335-0.441,0.301-0.73c-0.052-0.445-0.456-0.764-0.901-0.711c-0.445,0.052-0.763,0.456-0.711,0.901
					c0.034,0.288,0.214,0.522,0.458,0.638l0.083,0.707c-0.808,0.132-1.589,0.376-2.332,0.731l0.37,0.774
					c1.058-0.506,2.199-0.762,3.392-0.762c0.562,0,1.124,0.06,1.67,0.178l0.182-0.839
					C269.107,474.196,268.484,474.129,267.861,474.129z"/>
				<path id="XMLID_26_" style="fill:#222221;" d="M275.337,477.014c0.375-0.046,0.641-0.387,0.595-0.761
					c-0.046-0.375-0.387-0.641-0.761-0.595c-0.35,0.043-0.606,0.344-0.6,0.689l-0.471,0.411c-0.473-0.487-1.007-0.92-1.594-1.29
					l-0.458,0.726c1.284,0.809,2.288,1.955,2.903,3.313l0.782-0.354c-0.284-0.627-0.643-1.214-1.067-1.75l0.456-0.397
					C275.191,477.019,275.263,477.023,275.337,477.014z"/>
				<path id="XMLID_25_" style="fill:#222221;" d="M267.24,485.689c-0.437,0.026-0.877,0.039-1.31,0.039
					c-0.997,0-1.962-0.069-2.807-0.203c-0.442-0.07-0.958-0.176-1.439-0.331c1.185,2.107,3.476,3.539,6.102,3.539
					c3.234,0,5.959-2.17,6.737-5.1c-0.772,0.509-1.705,0.935-2.784,1.271C270.405,485.321,268.848,485.592,267.24,485.689z"/>
				<path id="XMLID_21_" style="fill:#222221;" d="M267.861,475.846c-3.796,0-6.884,3.019-6.884,6.73
					c0,0.482,0.052,0.962,0.155,1.428c0.762,0.547,3.064,1.008,6.055,0.828c3.261-0.196,5.998-1.084,7.556-2.444
					c-0.006-0.221-0.023-0.442-0.051-0.659C274.261,478.375,271.324,475.846,267.861,475.846z M265.415,483.223
					c-1.155,0-2.095-0.94-2.095-2.095c0-1.155,0.94-2.095,2.095-2.095c1.155,0,2.095,0.94,2.095,2.095
					C267.51,482.284,266.57,483.223,265.415,483.223z M270.78,482.195c-0.849,0-1.54-0.691-1.54-1.54
					c0-0.849,0.691-1.541,1.54-1.541c0.849,0,1.541,0.691,1.541,1.541C272.32,481.504,271.629,482.195,270.78,482.195z"/>
			</g>
			<path id="XMLID_18_" style="fill:#222221;" d="M285.983,477.96c-0.334-0.131-0.912-0.35-1.565-0.269
				c-0.624,0.078-0.955,0.386-0.955,1.14v0.981h2.523v1.944h-2.523v6.177h-2.188v-6.177h-1.517v-1.944h1.517v-1.006
				c0-1.902,1.014-3.151,2.908-3.151c0.728,0,1.31,0.138,1.8,0.349L285.983,477.96z"/>
			<path id="XMLID_16_" style="fill:#222221;" d="M291.308,481.733c-0.2-0.034-0.405-0.052-0.596-0.052
				c-1.014,0-1.71,0.62-1.71,1.827v4.425h-2.188v-8.121h2.12v0.888c0.511-0.763,1.291-1.106,2.288-1.106
				c0.469,0,0.96,0.144,1.239,0.381L291.308,481.733z"/>
			<path id="XMLID_13_" style="fill:#222221;" d="M299.99,483.86c0,0.251-0.017,0.553-0.042,0.738h-5.758
				c0.235,1.173,1.056,1.685,2.087,1.685c0.704,0,1.467-0.285,2.053-0.779l1.282,1.408c-0.922,0.846-2.095,1.232-3.461,1.232
				c-2.489,0-4.216-1.693-4.216-4.249c0-2.556,1.676-4.3,4.107-4.3C298.381,479.594,299.982,481.329,299.99,483.86z
				 M294.199,483.106h3.595c-0.201-1.039-0.83-1.626-1.768-1.626C294.995,481.48,294.392,482.1,294.199,483.106z"/>
			<path id="XMLID_10_" style="fill:#222221;" d="M308.657,483.86c0,0.251-0.017,0.553-0.042,0.738h-5.758
				c0.235,1.173,1.056,1.685,2.087,1.685c0.704,0,1.467-0.285,2.053-0.779l1.282,1.408c-0.922,0.846-2.095,1.232-3.461,1.232
				c-2.489,0-4.216-1.693-4.216-4.249c0-2.556,1.676-4.3,4.107-4.3C307.048,479.594,308.649,481.329,308.657,483.86z
				 M302.866,483.106h3.596c-0.201-1.039-0.83-1.626-1.768-1.626C303.662,481.48,303.058,482.1,302.866,483.106z"/>
			<path id="XMLID_7_" style="fill:#222221;" d="M318.108,483.869c0,2.439-1.693,4.274-3.931,4.274c-1.09,0-1.861-0.427-2.389-1.056
				v4.199h-2.179v-11.474h2.137v0.897c0.528-0.662,1.307-1.115,2.422-1.115C316.414,479.594,318.108,481.43,318.108,483.869z
				 M311.679,483.869c0,1.282,0.846,2.238,2.087,2.238c1.291,0,2.095-0.997,2.095-2.238c0-1.24-0.805-2.238-2.095-2.238
				C312.526,481.631,311.679,482.586,311.679,483.869z"/>
			<path id="XMLID_4_" style="fill:#222221;" d="M321.622,477.155c0,0.788-0.612,1.391-1.4,1.391c-0.788,0-1.391-0.603-1.391-1.391
				c0-0.788,0.604-1.408,1.391-1.408C321.01,475.747,321.622,476.367,321.622,477.155z M321.329,487.934h-2.188v-8.121h2.188
				V487.934z"/>
			<path id="XMLID_2_" style="fill:#222221;" d="M324.979,482.704l3.059-2.892h2.682l-3.939,3.822l3.964,4.3h-2.69l-3.076-3.285
				v3.285h-2.188v-12.069h2.188V482.704z"/>
		</g>
		<g>
			<path style="fill:#222221;" d="M175.933,487.86v-1.194c-0.597,0.813-1.576,1.393-2.704,1.393c-2.09,0-3.566-1.592-3.566-4.196
				c0-2.555,1.46-4.213,3.566-4.213c1.078,0,2.057,0.531,2.704,1.41v-4.263h1.244v11.064H175.933z M175.933,485.687v-3.633
				c-0.448-0.697-1.41-1.294-2.405-1.294c-1.609,0-2.571,1.327-2.571,3.102c0,1.775,0.962,3.085,2.571,3.085
				C174.523,486.948,175.485,486.384,175.933,485.687z"/>
			<path style="fill:#222221;" d="M178.786,483.846c0-2.322,1.659-4.197,3.948-4.197c2.422,0,3.848,1.891,3.848,4.296v0.315h-6.486
				c0.1,1.509,1.161,2.77,2.886,2.77c0.912,0,1.841-0.365,2.471-1.012l0.597,0.813c-0.796,0.796-1.874,1.227-3.185,1.227
				C180.495,488.059,178.786,486.351,178.786,483.846z M182.717,480.678c-1.709,0-2.555,1.443-2.621,2.67h5.258
				C185.338,482.154,184.542,480.678,182.717,480.678z"/>
			<path style="fill:#222221;" d="M187.477,486.798l0.647-0.896c0.531,0.614,1.543,1.145,2.637,1.145
				c1.228,0,1.891-0.581,1.891-1.377c0-1.94-4.96-0.746-4.96-3.716c0-1.244,1.078-2.305,2.985-2.305c1.36,0,2.323,0.514,2.969,1.161
				l-0.581,0.862c-0.481-0.581-1.36-1.012-2.389-1.012c-1.095,0-1.775,0.548-1.775,1.261c0,1.758,4.96,0.597,4.96,3.716
				c0,1.344-1.078,2.422-3.151,2.422C189.402,488.059,188.29,487.661,187.477,486.798z"/>
			<path style="fill:#222221;" d="M195.257,477.875c0-0.464,0.382-0.846,0.829-0.846c0.465,0,0.846,0.381,0.846,0.846
				c0,0.465-0.381,0.829-0.846,0.829C195.639,478.704,195.257,478.339,195.257,477.875z M195.472,487.86v-8.011h1.244v8.011H195.472
				z"/>
			<path style="fill:#222221;" d="M198.773,489.917l0.63-0.929c0.663,0.796,1.46,1.095,2.604,1.095c1.327,0,2.571-0.647,2.571-2.405
				v-1.145c-0.581,0.813-1.559,1.427-2.687,1.427c-2.09,0-3.566-1.559-3.566-4.147c0-2.571,1.46-4.163,3.566-4.163
				c1.078,0,2.04,0.531,2.687,1.41v-1.211h1.244v7.779c0,2.654-1.858,3.483-3.815,3.483
				C200.647,491.111,199.718,490.846,198.773,489.917z M204.579,485.555v-3.5c-0.432-0.697-1.393-1.294-2.389-1.294
				c-1.609,0-2.571,1.277-2.571,3.052c0,1.758,0.962,3.052,2.571,3.052C203.185,486.865,204.147,486.251,204.579,485.555z"/>
			<path style="fill:#222221;" d="M213.303,487.86v-5.242c0-1.41-0.713-1.858-1.791-1.858c-0.979,0-1.908,0.597-2.372,1.244v5.855
				h-1.244v-8.011h1.244v1.161c0.564-0.663,1.658-1.36,2.853-1.36c1.676,0,2.555,0.846,2.555,2.588v5.623H213.303z"/>
			<path style="fill:#222221;" d="M216.156,483.846c0-2.322,1.659-4.197,3.948-4.197c2.422,0,3.848,1.891,3.848,4.296v0.315h-6.486
				c0.099,1.509,1.161,2.77,2.886,2.77c0.912,0,1.841-0.365,2.472-1.012l0.597,0.813c-0.796,0.796-1.874,1.227-3.185,1.227
				C217.865,488.059,216.156,486.351,216.156,483.846z M220.087,480.678c-1.708,0-2.555,1.443-2.621,2.67h5.258
				C222.708,482.154,221.912,480.678,220.087,480.678z"/>
			<path style="fill:#222221;" d="M231.35,487.86v-1.194c-0.597,0.813-1.576,1.393-2.704,1.393c-2.09,0-3.566-1.592-3.566-4.196
				c0-2.555,1.46-4.213,3.566-4.213c1.078,0,2.057,0.531,2.704,1.41v-4.263h1.244v11.064H231.35z M231.35,485.687v-3.633
				c-0.448-0.697-1.41-1.294-2.405-1.294c-1.609,0-2.571,1.327-2.571,3.102c0,1.775,0.962,3.085,2.571,3.085
				C229.94,486.948,230.902,486.384,231.35,485.687z"/>
			<path style="fill:#222221;" d="M238.532,487.86v-11.064h1.244v4.263c0.647-0.879,1.609-1.41,2.704-1.41
				c2.09,0,3.566,1.659,3.566,4.213c0,2.604-1.476,4.196-3.566,4.196c-1.128,0-2.107-0.581-2.704-1.393v1.194H238.532z
				 M242.164,486.948c1.626,0,2.588-1.31,2.588-3.085c0-1.775-0.962-3.102-2.588-3.102c-0.979,0-1.957,0.597-2.388,1.294v3.633
				C240.207,486.384,241.186,486.948,242.164,486.948z"/>
			<path style="fill:#222221;" d="M247.406,489.867c0.182,0.083,0.481,0.133,0.68,0.133c0.547,0,0.912-0.182,1.194-0.846
				l0.531-1.211l-3.351-8.095h1.344l2.671,6.568l2.654-6.568h1.36l-4.014,9.637c-0.481,1.161-1.294,1.609-2.355,1.625
				c-0.265,0-0.68-0.05-0.912-0.116L247.406,489.867z"/>
		</g>
	</g>
</g>
</svg>
